{"title":"Continuum S03E02 HDTV x264 [2HD]","uid":9927386,"size":318826918,"categoryP":"video","categoryS":"tv_shows","magnet":"?xt=urn:btih:7cdaff197653439f62858ef7c27fd30d5f0b72ee&amp;dn=Continuum+S03E02+HDTV+x264+%5B2HD%5D&amp;tr=udp%3A%2F%2Ftracker.openbittorrent.com%3A80&amp;tr=udp%3A%2F%2Fopen.demonii.com%3A1337&amp;tr=udp%3A%2F%2Ftracker.coppersurfer.tk%3A6969&amp;tr=udp%3A%2F%2Fexodus.desync.com%3A6969","seeders":2,"leechers":0,"uploader":"haloReD","files":-1,"time":1397078588,"description":"                    Continuum S03E02 HDTV x264 [2HD]\n\nGeneral:\n\nName                    : Continuum.S03E02.HDTV.x264-2HD.mp4\nFormat                  : MPEG-4\nCodec ID                : isom\nFile size               : 296 MiB\nDuration                : 44mn 6s\nOverall bit rate mode   : Variable\nOverall bit rate        : 938 Kbps\n\n\nVideo:\n\nFormat                  : AVC\nDuration                : 44mn 6s\nBit rate                : 802 Kbps\nMaximum bit rate        : 2 732 Kbps\nWidth                   : 720 pixels\nHeight                  : 404 pixels\nDisplay aspect ratio    : 16:9\nFrame rate              : 23.976 fps\nStream size             : 253 MiB (85%)\n\nAudio:\n\nFormat                  : AAC\nCodec ID                : 40\nDuration                : 44mn 6s\nBit rate mode           : Variable\nBit rate                : 132 Kbps\nMaximum bit rate        : 223 Kbps\nChannel(s)              : 2 channels\nSampling rate           : 48.0 KHz\nCompression mode        : Lossy\nStream size             : 41.6 MiB (14%)\n\nScreen:\n &lt;a href=&quot;\nhttp://i.imgur.com/luSazmk.jpg&quot; rel=&quot;nofollow&quot; target=&quot;_NEW&quot;&gt;\nhttp://i.imgur.com/luSazmk.jpg&lt;/a&gt;\n\n","torrent":{"xt":"urn:btih:7cdaff197653439f62858ef7c27fd30d5f0b72ee","amp;dn":"Continuum+S03E02+HDTV+x264+%5B2HD%5D","amp;tr":["udp%3A%2F%2Ftracker.openbittorrent.com%3A80","udp%3A%2F%2Fopen.demonii.com%3A1337","udp%3A%2F%2Ftracker.coppersurfer.tk%3A6969","udp%3A%2F%2Fexodus.desync.com%3A6969"],"infoHash":"7cdaff197653439f62858ef7c27fd30d5f0b72ee","infoHashBuffer":{"type":"Buffer","data":[124,218,255,25,118,83,67,159,98,133,142,247,194,127,211,13,95,11,114,238]},"announce":[],"urlList":[]}}